<svg width="594" height="156" style="background-color:white" xmlns="http://www.w3.org/2000/svg" version="1.1" xmlns:xlink="http://www.w3.org/1999/xlink">
	<defs>
	<marker id="arrow_i" refX="6" refY="3" markerWidth="6" markerHeight="6" orient="auto-start-reverse">  <path d="M 0 0 L 6 3 L 0 6 z" fill="steelblue"/></marker>
        <marker id="arrow_c" refX="6" refY="3" markerWidth="6" markerHeight="6" orient="auto-start-reverse">  <path d="M 0 0 L 6 3 L 0 6 z" fill="hotpink"/></marker>
        <marker id="arrow_a" refX="6" refY="3" markerWidth="6" markerHeight="6" orient="auto-start-reverse">  <path d="M 0 0 L 6 3 L 0 6 z" fill="green"/></marker>
        <g id="undef"><rect x="0" y="0" width="18" height="18" fill="red" rx="4"/><text font-family="system-ui" dominant-baseline="middle" text-anchor="middle" font-weight="bolder" font-style="normal" font-size="16" x="10" y="11" fill="white" >?</text></g>
        <g id="placeholder">
<rect x="0" y="0" width="18" height="18" fill="LightCyan" rx="4"/>
</g>
        <g id="eff"><circle r="4" cx="-10" cy="10" fill="darkorange" stroke="white" stroke-width="0.25" /></g>
        <linearGradient id="grad" x1="0%"  x2="0%" y1="0%" y2="100%" ><stop offset="0%" stop-color="white" stop-opacity="0"/><stop offset="50%" stop-color="white" stop-opacity="1.0"/><stop offset="100%" stop-color="white" stop-opacity="0"/></linearGradient>
        <g id="D">
<rect x="0" y="1" width="18" height="18" fill="lightgray" rx="4"/>
<text font-family="system-ui" dominant-baseline="middle" text-anchor="middle" font-weight="bold" font-style="normal" font-size="10" x="10" y="11" fill="white" >
D
</text>
</g>
        <g id="IW">
<rect x="0" y="1" width="18" height="18" fill="blue" rx="4"/>
<text font-family="system-ui" dominant-baseline="middle" text-anchor="middle" font-weight="bold" font-style="normal" font-size="10" x="10" y="11" fill="white" >
IW
</text>
</g>
        <g id="F">
<rect x="0" y="1" width="18" height="18" fill="orange" rx="4"/>
<text font-family="system-ui" dominant-baseline="middle" text-anchor="middle" font-weight="bold" font-style="normal" font-size="10" x="10" y="11" fill="white" >
F
</text>
</g>
        <g id="R">
<rect x="0" y="1" width="18" height="18" fill="green" rx="4"/>
<text font-family="system-ui" dominant-baseline="middle" text-anchor="middle" font-weight="bold" font-style="normal" font-size="10" x="10" y="11" fill="white" >
R
</text>
</g>
        <g id="O">
<rect x="0" y="1" width="18" height="18" fill="black" rx="4"/>
<text font-family="system-ui" dominant-baseline="middle" text-anchor="middle" font-weight="bold" font-style="normal" font-size="10" x="10" y="11" fill="white" >
O
</text>
</g>
        <g id="matrice">    <polyline fill="none" stroke="white"  points="-5,17 -7.5,19.5" stroke-width="2.5" stroke-linecap="round"/>    <polyline fill="none" stroke="white"  points="-5,17 -5,12" stroke-width="2.5" stroke-linecap="round"/>    <polyline fill="none" stroke="white"  points="-5,17 0,17" stroke-width="2.5" stroke-linecap="round"/>    <polyline fill="none" stroke="steelblue"  points="-5,17 -5,12" stroke-width="2" stroke-linecap="round"/>    <polyline fill="none" stroke="steelblue"  points="-5,17 0,17" stroke-width="2" stroke-linecap="round"/>    <polyline fill="none" stroke="steelblue"  points="-5,17 -7.5,19.5" stroke-width="2" stroke-linecap="round"/></g>
        <g id="context">   <circle r="4" cx="17" cy="17" fill="royalblue" stroke="white" stroke-width="0.25" /> </g>
        <g id="lock" >   <rect x="13" y="-2" width="8" height="8" fill="indigo" stroke="white" stroke-width="0.25"/>   <path d="M 14 -2 A 3 3, 0,1,1,20 -2" stroke-width="2" fill="none" stroke="indigo" /> </g>
        <g id="unlock" >   <rect x="13" y="-2" width="8" height="8" fill="indigo" stroke="white" stroke-width="0.25" />   <path d="M 14 -2 A 3 3, 0,1,0,8 -2" stroke-width="2" fill="none" stroke="indigo" /> </g>
        <g id="noway">   <circle r="7" cx="20" cy="0" fill="red" stroke="white" stroke-width="0.25"/>   <line x1="16" y1="0" x2="24" y2="0" stroke="white" stroke-width="2.5"/> </g>
        </defs> 
	<g id="legend" transform="translate(2,135) scale(0.8,0.8)">
	<rect width="-Infinity" height="13" x="0" y="12" fill="none" stroke="gray" stroke-width="1"/>
	<g transform="translate(5,25)">		
	</g>
	<rect x="18" y="10" width="45" height="5" fill="white"/>
	<text stroke="none" font-family="system-ui" font-weight="normal" font-style="normal" font-size="12" x="20" y="16" fill="grey" >
	Legend
	</text></g><polyline fill="none" stroke="black" stroke-width="1" points="30,30 30,45 40,45"/>
					<polyline fill="none" stroke="black" stroke-width="1" points="30,30 30,70 40,70"/>
					<polyline fill="none" stroke="black" stroke-width="1" points="30,30 30,95 40,95"/>
					<polyline fill="none" stroke="black" stroke-width="1" points="50,105 50,120 60,120"/>
					<polyline fill="none" stroke="black" stroke-width="1" points="396,30 396,45 406,45"/>
					<polyline fill="none" stroke="black" stroke-width="1" points="396,80 396,95 406,95"/>
					
			<g id="0" transform="translate(20,10)">
			<rect width="121" height="20" x="2" fill="url(#grad)" />
				<text id="L_0" font-family="system-ui" font-weight="normal" font-style="normal" font-size="13" x="2" y="15" stroke="white" stroke-width="1" fill="black" paint-order="stroke">
				first root first column
				</text>
				</g>
			
			<g id="1" transform="translate(40,35)">
			<rect width="29" height="20" x="2" fill="url(#grad)" />
				<text id="L_1" font-family="system-ui" font-weight="normal" font-style="normal" font-size="13" x="2" y="15" stroke="white" stroke-width="1" fill="black" paint-order="stroke">
				Child
				</text>
				</g>
			
			<g id="2" transform="translate(40,60)">
			<rect width="306" height="20" x="2" fill="url(#grad)" />
				<text id="L_2" font-family="system-ui" font-weight="normal" font-style="normal" font-size="13" x="2" y="15" stroke="white" stroke-width="1" fill="black" paint-order="stroke">
				It works as long as there is a plus followed by a space
				</text>
				</g>
			
			<g id="3" transform="translate(40,85)">
			<rect width="226" height="20" x="2" fill="url(#grad)" />
				<text id="L_3" font-family="system-ui" font-weight="normal" font-style="normal" font-size="13" x="2" y="15" stroke="white" stroke-width="1" fill="black" paint-order="stroke">
				but space is more convinient in vs code
				</text>
				</g>
			
			<g id="4" transform="translate(60,110)">
			<rect width="77" height="20" x="2" fill="url(#grad)" />
				<text id="L_4" font-family="system-ui" font-weight="normal" font-style="normal" font-size="13" x="2" y="15" stroke="white" stroke-width="1" fill="black" paint-order="stroke">
				new sub level
				</text>
				</g>
			
			<g id="8" transform="translate(386,10)">
			<rect width="149" height="20" x="2" fill="url(#grad)" />
				<text id="L_8" font-family="system-ui" font-weight="normal" font-style="normal" font-size="13" x="2" y="15" stroke="white" stroke-width="1" fill="black" paint-order="stroke">
				second root new ncolumn
				</text>
				</g>
			
			<g id="9" transform="translate(406,35)">
			<rect width="43" height="20" x="2" fill="url(#grad)" />
				<text id="L_9" font-family="system-ui" font-weight="normal" font-style="normal" font-size="13" x="2" y="15" stroke="white" stroke-width="1" fill="black" paint-order="stroke">
				 A child
				</text>
				</g>
			
			<g id="10" transform="translate(386,60)">
			<rect width="188" height="20" x="2" fill="url(#grad)" />
				<text id="L_10" font-family="system-ui" font-weight="normal" font-style="normal" font-size="13" x="2" y="15" stroke="white" stroke-width="1" fill="black" paint-order="stroke">
				several root on the same column
				</text>
				</g>
			
			<g id="11" transform="translate(406,85)">
			<rect width="76" height="20" x="2" fill="url(#grad)" />
				<text id="L_11" font-family="system-ui" font-weight="normal" font-style="normal" font-size="13" x="2" y="15" stroke="white" stroke-width="1" fill="black" paint-order="stroke">
				another child
				</text>
				</g>
			</svg>